<svg xmlns="http://www.w3.org/2000/svg" viewBox="0 0 573.78 575.68"><defs><style>.cls-1{fill:#48282b;}.cls-2{fill:#f8b37a;}.cls-3{fill:#725d70;}.cls-4{fill:#302a4c;}.cls-5{fill:#2b2a30;}.cls-6{fill:#fcf9ff;}.cls-7{fill:#b7b9ea;}.cls-8{fill:#a3a0bf;}.cls-9{fill:#354443;}.cls-10{fill:#a69bab;}.cls-11{fill:#3d381c;}.cls-12,.cls-13{fill:none;stroke-miterlimit:10;}.cls-12{stroke:#1e1e1e;}.cls-13{stroke:#5c302a;}.cls-14{fill:#79911e;}.cls-15{fill:#91b126;}.cls-16{fill:#fec59d;}.cls-17{fill:#de9673;}.cls-18{fill:#ffba84;}</style></defs><title>desk-img</title><g id="Layer_2" data-name="Layer 2"><g id="Layer_1-2" data-name="Layer 1"><path class="cls-1" d="M159.78,49.68s-17-50,40-20c0,0,13,7,8,0,0,0-7-38-53-28,0,0-51,16-15,72l10.5-3.5S135.28,33.18,159.78,49.68Z"/><path class="cls-2" d="M120.78,93.68s24,37,56,6c0,0,30.5,5.5,32.5-66.5,0,0-65-37-50,16,0,0-21.95-19.35-10,21.32l-9,2.68Z"/><path class="cls-3" d="M194.78,153.68S199,102.32,175.38,101c0,0-24.6,28.68-55.6-7.32L81.6,111.13s10.1-6,26.39,7c0,0,1.44,31.39,16.79,57.55,13.26,22.59,39,41,58,35C182.78,210.68,192.28,160.18,194.78,153.68Z"/><polygon class="cls-2" points="94.32 448.61 82.78 459.68 101.78 482.68 114.31 471.67 94.32 448.61"/><path class="cls-4" d="M80.78,459.68l-21,6,31,81s18-30,11-64Z"/><polygon class="cls-5" points="81.78 538.68 90.78 546.68 59.78 465.68 81.78 538.68"/><polygon class="cls-6" points="176.39 246.04 176.39 262.68 573.78 262.68 573.78 245.68 176.39 246.04"/><polygon class="cls-6" points="178.78 567.68 188.78 567.68 244.73 262.68 230.05 262.68 178.78 567.68"/><polygon class="cls-6" points="388.78 554.68 399.78 554.68 351.78 266.68 332.78 266.68 388.78 554.68"/><polygon class="cls-7" points="365.78 144.68 335.78 237.68 406.78 237.68 443.78 144.68 365.78 144.68"/><rect class="cls-8" x="234.78" y="237.68" width="172.89" height="8.33"/><path class="cls-4" d="M228.13,353.19l16.65,149.49h32l-6-130s12.24-37.3-35.38-59.15Z"/><polygon class="cls-5" points="227.78 407.68 244.78 502.68 227.78 353.68 222.51 383.79 227.78 407.68"/><path class="cls-9" d="M37.78,575.68h138s0-19-31-24c0,0-27-3-28-12l.2-64.93-2.7-3.57-12,12s1,56-1,61C101.28,544.18,37.28,547.18,37.78,575.68Z"/><polygon class="cls-2" points="255.16 527.21 273.78 516.68 273.78 503.18 250.78 503.18 255.16 527.21"/><path class="cls-4" d="M255.78,562.68l92-31s-26-26-74-16l-18,12Z"/><path class="cls-10" d="M216.78,168.68S209,114,180.91,103.33c0,0,17.79,39.68,5.08,90.77A109.89,109.89,0,0,0,216.78,168.68Z"/><circle class="cls-11" cx="184.28" cy="52.18" r="3.5"/><circle class="cls-11" cx="200.28" cy="52.18" r="3.5"/><path class="cls-12" d="M194.78,74.68s15,4,0-17"/><ellipse class="cls-13" cx="181.28" cy="52.68" rx="8.5" ry="11"/><ellipse class="cls-13" cx="202.78" cy="53.18" rx="8.5" ry="11"/><path class="cls-13" d="M187.84,45.68s3-3.5,8.74,0"/><path class="cls-14" d="M31.78,342.68l116,6c-14.5-8.08-86-39-86-39-2.64-17.13,20-120,20-120l5-9c-31.68-64.74,3.66-73.59,3.66-73.59-52.85-.09-65.16,15.09-65.16,15.09-24,9,9.5,106.5,9.5,106.5,18,58-1.5,87.5-1.5,87.5S28.78,336.68,31.78,342.68Z"/><path class="cls-15" d="M12.78,338.68s1-24,8-31c0,0,12-38,0-76,0,0-28-83-19-101,0,0-.05-25.18,87-23.59,0,0-59.6,1.06-70,22.57,0,0-5.1,35.52,22.23,116,0,0,10.36,40.2-6.15,67.85,0,0-5.57,21.07-1,29.15Z"/><polygon class="cls-9" points="75.28 385.18 136.28 385.18 97.28 445.18 97.28 408.18 75.28 408.18 75.28 385.18"/><path class="cls-15" d="M22.28,354.18v18s0,12,13,12H138.07l24.21-36-149-9S15.28,354.18,22.28,354.18Z"/><path class="cls-16" d="M214,171.94l16.31,31.24,91,28,18.37-5.5-3.87,12-23.5-.5-8-8-14-2-12-4-26,4L196.2,209.47l-6-17.8S212.66,176.71,214,171.94Z"/><polygon class="cls-17" points="275.52 237.73 288.28 233.18 298.89 237.73 275.52 237.73"/><path class="cls-10" d="M83.78,178.68l41-24-17-37s-35-28-38,21Z"/><path class="cls-5" d="M162.28,348.18l-81-6s-31,6-22-63c0,0,6.28,45.05,25.64,56.52,0,0,64.86-13,102.86,11L109.13,427.2Z"/><path class="cls-4" d="M183.78,347.68l-92,98,26,30,92-104s45-78-37-97l-113.5,4.5s9,52,27,57C86.28,336.18,165.28,324.18,183.78,347.68Z"/><path class="cls-3" d="M61.78,279.68l111-5,6.5-51.65s-62.5,9.65-87.5-48.35l-8,4Z"/><path class="cls-18" d="M91.42,174.2s11,38.42,52.18,47l90.68,16,40.29.5,13.71-4.5,11.56,4.5h12.44l-8-8.5-14-2-12-4-26,4-114-36-20.45-32.43Z"/><path class="cls-12" d="M197.28,84.18a12.18,12.18,0,0,1-13-3"/></g></g></svg>