<svg xmlns="http://www.w3.org/2000/svg" viewBox="0 0 243.31 150"><defs><style>.cls-1{fill:#cec2d1;}.cls-2{fill:#ffa89f;}.cls-3{fill:#fff;}.cls-4{fill:#aecafc;}.cls-5{fill:#ecb0a9;}.cls-6{fill:#ff6560;}.cls-7{fill:#7b921f;}.cls-8{fill:#91b126;}.cls-9{fill:none;stroke:#5c302a;stroke-miterlimit:10;}</style></defs><title>table-img</title><g id="Layer_2" data-name="Layer 2"><g id="Layer_1-2" data-name="Layer 1"><polygon class="cls-1" points="0 108 0 122 33 122 33 150 44 150 44 123 191 123 191 150 204 150 204 123 231 123 231 108 0 108"/><rect class="cls-2" x="27.5" y="25.5" width="19" height="82"/><rect class="cls-3" x="56.5" y="21.5" width="19" height="86"/><polygon class="cls-4" points="95.5 107.5 75.5 107.5 75.5 25.5 95.5 25.5 95.5 29.13 95.5 107.5"/><polygon class="cls-5" points="113.5 26.5 134.5 100.5 116.5 107.5 95.5 32.76 113.5 26.5"/><rect class="cls-6" x="46.5" y="27.5" width="10" height="80"/><polygon class="cls-3" points="181 70.5 191.08 106.5 218.24 106.5 229 70.5 181 70.5"/><path class="cls-7" d="M181,14.5s-13-12-15,5c0,0,6,7,5,12,0,0-13,15-1,18,0,0,13,5,7,10,0,0-6,3,5,10l8.13,1,2.87-1s-6-5,0-10c0,0,5-4,0-9,0,0-10-3-9-11,0,0-3-5,9-11,0,0-14-1-12-5C181,23.5,183,20.5,181,14.5Z"/><path class="cls-7" d="M226.5,15s7-12,16,0c0,0,2,9-4,11,0,0-4,7,2,10,0,0,8,10-3,15,0,0-12,2-6,9,0,0,3,6-5,10.5l-7,.5s3.89-8.39-1.8-13.45c0,0-5.45-5.62.93-7.83,0,0,10.85-9.9,3.11-20.06,0,0-2.74-3.16-4.74-3.16,0,0,8,0,8-5C225,21.5,224,17.5,226.5,15Z"/><path class="cls-8" d="M192.5,8s9-18,20,0c0,0-3,11-1,14a60.6,60.6,0,0,1,6,4c4.17,3.15,8.68,7.57,7,11,0,0-1,11-8,14,0,0-1.5,4.5,3.5,9.5,0,0,1.37,10-.82,10H192.5s-4.5-8,.5-11c0,0,5.88-5.78-1.06-9.39,0,0-17.94-9.61,1.06-21.61a14.52,14.52,0,0,0,1-13S190,10.5,192.5,8Z"/><line class="cls-9" x1="187.54" y1="70.18" x2="177" y2="29.5"/><path class="cls-9" d="M205,66.5v-32"/><line class="cls-9" x1="222" y1="68.5" x2="230" y2="38.5"/></g></g></svg>