<?xml version="1.0" encoding="utf-8"?>
<!-- Generator: Adobe Illustrator 23.0.1, SVG Export Plug-In . SVG Version: 6.00 Build 0)  -->
<svg version="1.1" id="Слой_1" xmlns="http://www.w3.org/2000/svg" xmlns:xlink="http://www.w3.org/1999/xlink" x="0px" y="0px"
	 viewBox="0 0 491.7 296.1" style="enable-background:new 0 0 491.7 296.1;" xml:space="preserve">
<style type="text/css">
	.st0{fill:#5C86DB;}
	.st1{fill:#343339;}
	.st2{fill:#D1E5F5;}
	.st3{fill:#B1CBEC;}
	.st4{fill:#E9A79D;}
	.st5{fill:#597FD8;}
	.st6{fill:#CE6A42;}
	.st7{fill:#7597F0;}
	.st8{fill:#5959BC;}
	.st9{fill:#222651;}
	.st10{fill:#DB928A;}
	.st11{fill:#96BADD;}
	.st12{fill:#A7C6E7;}
</style>
<g>
	<g>
		<path class="st0" d="M210.1,141.4h-11.4c-0.7-5.8-1.3-11.6-2-17.4h15.5C211.4,129.8,210.8,135.6,210.1,141.4z"/>
		<path class="st1" d="M213,123.9h-17.3V123c0-1,0.8-1.7,1.7-1.7h13.8c1,0,1.7,0.8,1.7,1.7v0.9H213z"/>
		<path class="st1" d="M211.2,121.5h-13.6c0-1.7,1.4-3,3-3h8.1c1.4,0,2.5,1.1,2.5,2.5V121.5z"/>
		<ellipse class="st2" cx="204.4" cy="131.5" rx="3.7" ry="3.7"/>
	</g>
	<g>
		<path class="st1" d="M195.4,144h-4.9l-6.2-45c0-0.3,0.2-0.5,0.4-0.5h2.4c1.1,0,2.1,0.9,2.2,2L195.4,144z"/>
		<path class="st1" d="M191.8,140v4h45c0.4,0,0.8-0.4,0.8-0.8c0-1.8-1.4-3.2-3.2-3.2H191.8L191.8,140z"/>
		<path class="st3" d="M201.4,143h-3.7c-0.5,0-1-0.4-1-1c0-0.5,0.4-1,1-1h3.7c0.5,0,1,0.4,1,1S201.9,143,201.4,143z"/>
	</g>
	<g>
		<path class="st4" d="M271.9,238.9l2.1,8.5l6.6-1.4l-1.2-8.8L271.9,238.9z M182.4,246.6l-5,5.4c0,0,1.1,5.1,10.1,2.8l6-5.8
			L182.4,246.6z"/>
		<path class="st1" d="M246.6,182.6l24.6,60h8.7c0.4,0,0.7-0.3,0.6-0.7c-0.3-3.7-1.7-21.4-3.4-35.4c-1.2-10-4.9-19.5-10.9-27.6
			l-3.8-5.1H250L246.6,182.6L246.6,182.6z"/>
		<path class="st4" d="M237.7,105.2c-3.1,0.9-11.5,3.7-11.5,3.7s-2.2,6.8-2.1,7.3c0.1,0.5-0.6,4.5,0,4.5s5-5.1,5-5.1s3.2,1.1,8-0.5
			c4.9-1.6,0.4-0.2,0.4-0.2l4.2,1.8l3.4-7.2l-5.6-3.9C239.1,105.2,238.4,105.1,237.7,105.2L237.7,105.2z"/>
		<path class="st1" d="M275.9,37.6c0,0-17,9.1-5.8,32.5c11.1,23.3-0.9,50.9-0.9,50.9s8.4,14.1,24.7,18.7c0,0,10-32.5,4.2-55.9
			C292.3,60.3,275.5,36.5,275.9,37.6L275.9,37.6z"/>
		<path class="st5" d="M313.4,98.4L280,130.9c-2.7,2.6-6.9,2.5-9.5-0.1c-2.4-2.4-2.5-6.2-0.5-8.8l28.6-36.7
			c3.4-4.3,9.6-5.1,13.9-1.7s5.1,9.6,1.7,13.9C314,97.8,313.7,98.1,313.4,98.4L313.4,98.4z"/>
		<path class="st5" d="M286.6,132.3c1.4-3.9-0.9-8.3-5.1-10l-37-14.3l-4.7,9l35.8,19c0.3,0.2,0.6,0.3,1,0.4
			C280.7,138,285.2,136.2,286.6,132.3L286.6,132.3z"/>
		<path class="st1" d="M271.4,41.8c-1.1,0.9-2,2-2.8,3.2c-0.7,1.2-1.3,2.5-1.7,3.9c-0.8,2.7-1,5.6-0.9,8.4l0.2,2.1l0.1,1.1l0.2,1
			l0.4,2.1c0.2,0.7,0.4,1.4,0.5,2.1c0.2,0.7,0.3,1.4,0.5,2.1l0.7,2l1.4,4.1c1.8,5.5,3.1,11.2,3.2,17c0.1,2.9-0.1,5.8-0.6,8.7
			l-0.2,1.1l-0.3,1.1l-0.6,2.1c-0.4,1.4-1,2.7-1.7,4c1.2-2.6,1.8-5.4,2.1-8.3l0.1-1.1l0.1-1.1c0.1-0.7,0.1-1.4,0.1-2.1v-2.1
			l-0.1-2.1c0-0.7-0.1-1.4-0.2-2.1s-0.1-1.4-0.2-2.1c-0.2-1.4-0.4-2.8-0.7-4.2l-0.4-2.1l-0.6-2.1l-0.6-2.1l-0.7-2l-1.4-4.1l-0.7-2.1
			c-0.2-0.7-0.4-1.4-0.5-2.1c-0.2-0.7-0.4-1.4-0.5-2.1l-0.3-2.2l-0.2-1.1c0-0.4-0.1-0.7-0.1-1.1l-0.1-2.2c0-2.9,0.3-5.8,1.3-8.6
			c0.5-1.4,1.2-2.7,2-3.9C269.1,43.7,270.2,42.6,271.4,41.8L271.4,41.8z"/>
		<path class="st6" d="M293.6,86.2l-0.6,2.4c0,0,9-2.3,16.8-10.4L293.6,86.2L293.6,86.2z"/>
		<path class="st1" d="M339.3,160l-42.1-5.1c-36.4,0-57.2,19.1-57.2,19.1l12.3,13.1H329c1.1,0,2.1-0.3,3-0.9
			C342.9,178.9,339.3,160,339.3,160L339.3,160z"/>
		<path class="st7" d="M309.7,78.2c0,0,12.5,4,20.2,18.8c7.8,14.8,13.4,51,9.9,67.3c0,0-34.5-1.2-42.7-9.4c0,0,0.6-31.3-4.6-39.3
			c-5.2-7.9,1-29.4,1-29.4S304.8,81.7,309.7,78.2z"/>
		<path class="st7" d="M314.1,111.5L280.7,144c-2.7,2.6-6.9,2.5-9.5-0.1c-2.4-2.4-2.5-6.2-0.5-8.8l28.6-36.7
			c3.4-4.3,9.6-5.1,13.9-1.7s5.1,9.6,1.7,13.9C314.7,110.8,314.4,111.2,314.1,111.5L314.1,111.5z"/>
		<path class="st4" d="M236.9,137.6l-16.4-2.4c-0.6-0.1-1.3,0.1-1.8,0.4l-9.9,6.9c-0.6,0.4-0.3,1.4,0.4,1.4H237v-6.3L236.9,137.6z"
			/>
		<path class="st7" d="M282.2,138c-0.6-4.1-4.7-7-9.1-6.4l-39.5,4.5v10.2l40.5,0.1c0.3,0,0.7,0,1-0.1
			C279.6,145.8,282.8,142.1,282.2,138z"/>
		<path class="st4" d="M229.7,112.3l-4.2,10.6c-0.3,0.8-1.2,1.1-1.9,0.8c-0.7-0.3-1-0.9-0.9-1.6l1.9-11.2c0.2-1.4,1.6-2.4,3.1-2.1
			c1.4,0.2,2.4,1.6,2.1,3.1C229.8,111.9,229.8,112.1,229.7,112.3L229.7,112.3z M304.3,53.9c1,11.7-8.7,25-18.4,25.9
			c-9.7,0.9-15.6-11-16.6-22.8c-1-11.7,6-21.9,15.6-22.8S303.3,42.2,304.3,53.9z"/>
		<path class="st4" d="M287.6,64.7c0,0,5.8,9.8,6,21.5c0,0,7.8,3.6,16.2-8c0,0-2.8-8.7-12.1-20L287.6,64.7z"/>
		<path class="st7" d="M267.8,266.7h-14.9c0-5.2,4.2-9.4,9.4-9.4h5.5V266.7z M169.4,265h-17.8v-3c0-4.6,3.7-8.3,8.3-8.3l13.3-2.8
			L169.4,265z"/>
		<path class="st7" d="M267.8,266.7h5.4l15.1-18.2l-7.6-5.9c0,0-2.8,6.1-9.8,4l-7.3,10.7L267.8,266.7L267.8,266.7z"/>
		<path class="st8" d="M268.7,251.9l1.9-12.6c0,0,3.3-0.5,3.5,4C274.2,247.7,268.7,251.9,268.7,251.9z"/>
		<path class="st1" d="M272.6,267.3h-19.7V266h19.7c0.2,0,0.4-0.1,0.5-0.2l14.7-17.8l1,0.8L274,266.6
			C273.7,267.1,273.1,267.3,272.6,267.3L272.6,267.3z"/>
		<path class="st7" d="M169.4,265h14.3l8.1-12.4c0.4-0.5-0.2-1.2-0.8-1.1c-4.5,1.2-14.6,4.4-14.2-3.2l-7.5,5.4L169.4,265L169.4,265z
			"/>
		<path class="st7" d="M172.2,255.2l7.2-11.8c0,0,3.5,0.9,1.9,5.4C179.6,253.4,172.2,255.2,172.2,255.2L172.2,255.2z"/>
		<path class="st1" d="M176.2,254.2c-0.1,0-0.2,0-0.3-0.1l-5-2.6c-0.3-0.2-0.5-0.6-0.3-0.9c0.2-0.3,0.6-0.5,0.9-0.3l5,2.6
			c0.3,0.2,0.5,0.6,0.3,0.9C176.6,254.1,176.4,254.2,176.2,254.2L176.2,254.2z M173.2,255.5c-0.1,0-0.2,0-0.3-0.1l-5-2.6
			c-0.3-0.2-0.5-0.6-0.3-0.9c0.2-0.3,0.6-0.5,0.9-0.3l5,2.6c0.3,0.2,0.5,0.6,0.3,0.9C173.7,255.4,173.5,255.5,173.2,255.5
			L173.2,255.5z"/>
		<path class="st9" d="M271.9,252.9h-0.2l-3.9-1c-0.3-0.1-0.6-0.4-0.5-0.8c0.1-0.3,0.4-0.6,0.8-0.5l3.9,1c0.3,0.1,0.6,0.4,0.5,0.8
			C272.4,252.7,272.2,252.9,271.9,252.9L271.9,252.9z"/>
		<path class="st1" d="M269.9,255h-0.2l-3.9-1c-0.3-0.1-0.6-0.4-0.5-0.8c0.1-0.3,0.4-0.6,0.8-0.5l3.9,1c0.3,0.1,0.6,0.4,0.5,0.8
			C270.5,254.8,270.2,255,269.9,255L269.9,255z M151.6,264.4h32.1v1.3h-32.1V264.4z M271.1,45.2c0.4,2,1.1,3.8,1.9,5.6
			c0.9,1.7,2,3.4,3.3,4.7c1.3,1.4,2.9,2.5,4.7,3.3c1.8,0.8,3.7,1.4,5.6,1.8c-2,0.1-4-0.2-6-1c-1-0.4-1.9-0.8-2.8-1.4
			c-0.9-0.6-1.7-1.2-2.4-2c-1.4-1.5-2.6-3.3-3.3-5.2C271.5,49.3,271,47.3,271.1,45.2L271.1,45.2z"/>
		<path class="st1" d="M270.4,43.9c0,0-2.4,10.2,14.3,14.6c2.3,0.6,4.7,0.7,7.1,0.4c3.3-0.3,9.3,0.2,10.3,8.1
			c0.1,0.5,0.7,0.7,1.1,0.4c10.5-9.3,3.2-27.8-9.2-32.4C283.9,31.3,273.3,37.1,270.4,43.9L270.4,43.9z"/>
		<circle class="st4" cx="296" cy="60.6" r="4.6"/>
		<path class="st5" d="M296,129.6c-0.2,0-0.3-0.1-0.4-0.2c-0.2-0.2-0.2-0.6,0-0.8l18-17.5c0.2-0.2,0.6-0.2,0.8,0
			c0.2,0.2,0.2,0.6,0,0.8l-18,17.5C296.3,129.5,296.2,129.6,296,129.6z"/>
		<path class="st10" d="M292.4,77.4c0,0,3.1-1.8,5.5-4.9c0,0-1,6.4-4.6,9.7C293.3,82.2,292.4,77.4,292.4,77.4z"/>
		<path class="st1" d="M244.9,175.1c-0.2-0.1-4.8-1.3-5-1.1l-57.5,72.5l11.1,3.8c16.2-13.6,33.5-25.9,43.2-34.8
			c7-6.4,12.4-14.3,15.8-23.1l2.3-6L244.9,175.1L244.9,175.1z"/>
	</g>
	<g>
		<path class="st7" d="M269.4,25.1c0,1.2-9.3,2.2-20.8,2.2s-20.8-1-20.8-2.2s9.3-2.2,20.8-2.2C260.1,22.9,269.4,23.9,269.4,25.1z"/>
		<path class="st5" d="M269.3,25H228c0-9.8,8-17.8,17.8-17.8h5.7C261.3,7.2,269.3,15.2,269.3,25z"/>
		<path class="st4" d="M248.6,22.9c-2.8,0-5.5,0.1-7.9,0.2c-0.3,0.8-0.4,1.7-0.4,2.7c0,4.6,3.7,8.3,8.3,8.3s8.3-3.7,8.3-8.3
			c0-0.9-0.2-1.8-0.4-2.7C254.1,23,251.4,22.9,248.6,22.9L248.6,22.9z"/>
		<path class="st5" d="M241.8,7.2V6c0-3.3,2.7-6,6-6h1.7c3.3,0,6,2.7,6,6v1.3"/>
	</g>
	<g>
		<path class="st11" d="M278,228.5c-0.5,0-0.9-0.2-1.3-0.5c-0.7-0.7-0.8-2,0-2.7l31.1-32.8c0.7-0.8,1.9-0.8,2.7,0
			c0.7,0.7,0.8,2,0,2.7L279.4,228C278.9,228.3,278.4,228.5,278,228.5z"/>
		<path class="st11" d="M319.1,228.5c-0.5,0-1-0.2-1.4-0.6l-31.1-32.8c-0.7-0.8-0.7-2,0-2.7s1.9-0.7,2.7,0l31.1,32.8
			c0.7,0.8,0.7,2,0,2.7C320,228.3,319.5,228.5,319.1,228.5L319.1,228.5z"/>
		<path class="st3" d="M336.3,193.7h-81v-3.2c0-1.9,1.5-3.4,3.4-3.4h77.6V193.7L336.3,193.7z M270.1,266.7h-6.4l18.3-73h6.5
			L270.1,266.7z M327.4,266.7h6.4l-18.3-73H309L327.4,266.7z"/>
		<path class="st11" d="M287.8,196.2l0.7-2.5H282l-0.6,2.5H287.8z M316.1,196.2l-0.6-2.5H309l0.6,2.5H316.1z"/>
	</g>
	<g>
		<path class="st12" d="M285.3,150.9H167.7v-3.6c0-1.9,1.5-3.4,3.4-3.4h114.2V150.9z M221.4,153.4h8.3V263h-8.3V153.4z"/>
		<path class="st12" d="M249.3,265.7h-46.2c0-3.5,2.8-6.3,6.3-6.3H243C246.4,259.4,249.3,262.3,249.3,265.7z M221.4,150.9h8.3v2.4
			h-8.3V150.9z"/>
	</g>
</g>
</svg>
