<svg
  id="svg-init"
  #svgInit
  width="100"
  height="100"
  viewBox="0 0 100 100"
  fill="none"
  xmlns="http://www.w3.org/2000/svg"
  >
  <path
    d="M8.33373 99.5C8.33355 99.5 8.33333 99.5 8.33333 100L8.33373 99.5ZM8.33373 99.5L8.33126 99.5L8.31749 99.4998C8.3045 99.4996 8.28397 99.4992 8.2564 99.4982C8.20126 99.4964 8.11808 99.4926 8.01088 99.485C7.79631 99.4697 7.48652 99.4388 7.11345 99.3766C6.36495 99.2518 5.37458 99.0033 4.39027 98.5111C3.40792 98.0199 2.44078 97.291 1.71811 96.207C0.997524 95.1261 0.5 93.6625 0.5 91.6667C0.5 87.6284 2.53361 79.4235 9.72855 72.2286C16.9088 65.0483 29.2721 58.8333 50 58.8333C70.7279 58.8333 83.0911 65.0483 90.2714 72.2286C97.4664 79.4235 99.5 87.6284 99.5 91.6667C99.5 93.6625 99.0025 95.1261 98.2819 96.207C97.5592 97.291 96.5921 98.0199 95.6097 98.5111C94.6254 99.0033 93.635 99.2518 92.8865 99.3766C92.5135 99.4388 92.2037 99.4697 91.9891 99.485C91.9285 99.4893 91.8755 99.4924 91.831 99.4946C91.7968 99.4963 91.7675 99.4974 91.7436 99.4982C91.716 99.4992 91.6955 99.4996 91.6825 99.4998L91.6687 99.5L91.6662 99.5M8.33373 99.5L91.6662 99.5M91.6662 99.5C91.6664 99.5 91.6665 99.5 91.6665 99.5568C91.6666 99.6173 91.6667 99.7421 91.6667 100L91.6662 99.5ZM67.3241 42.3241C62.7295 46.9188 56.4978 49.5 50 49.5C43.5022 49.5 37.2705 46.9188 32.6759 42.3241C28.0812 37.7295 25.5 31.4978 25.5 25C25.5 18.5022 28.0812 12.2705 32.6759 7.67588C37.2705 3.08124 43.5022 0.5 50 0.5C56.4978 0.5 62.7295 3.08124 67.3241 7.67588C71.9188 12.2705 74.5 18.5022 74.5 25C74.5 31.4978 71.9188 37.7295 67.3241 42.3241Z"
    stroke="black"
  />
  </svg>
