<svg
          id="svg-saved svg-init"
          #svgInit
          width="99"
          height="70"
          viewBox="0 0 99 70"
          fill="none"
          xmlns="http://www.w3.org/2000/svg"
        >
          <path
            d="M79.8903 29.0088L79.6951 29.5952L80.3094 29.6636C90.5502 30.8034 98.5 39.3496 98.5 49.5833C98.5 60.3913 89.4054 69.5 78.6176 69.5H20.3824C9.59458 69.5 0.5 60.3913 0.5 49.5833C0.5 39.3519 7.86929 31.3737 18.1353 29.6598L19.0923 29.5001L18.4068 28.8134C18.2308 28.6371 18.1061 28.3315 18.0384 27.8565C17.9716 27.3881 17.9706 26.8426 17.9706 26.25C17.9706 18.3587 24.1534 12.1667 32.0294 12.1667C33.6939 12.1667 35.9614 12.7289 37.6946 13.3076L38.1196 13.4495L38.3071 13.0426C41.718 5.63982 49.6914 0.5 58.2353 0.5C70.7701 0.5 81.0294 10.7753 81.0294 23.3333C81.0294 25.5776 80.4726 27.259 79.8903 29.0088ZM24.6873 44.5634L24.3347 44.9167L24.6873 45.2699L43.3226 63.9366L43.6765 63.5833L44.0303 63.9366L74.3127 33.6033L74.6653 33.25L74.3127 32.8967L66.1597 24.7301L65.8059 24.3756L65.452 24.7301L43.6765 46.5423L33.548 36.3967L33.1941 36.0423L32.8403 36.3967L24.6873 44.5634Z"
            stroke="black"
          />
        </svg>
