<svg
  id="svg-init"
  #svgInit
  width="105"
  height="100"
  viewBox="0 0 105 100"
  fill="none"
  xmlns="http://www.w3.org/2000/svg"
  >
  <path
    d="M73 21.0526V21.5526H73.5H94.5C100.05 21.5526 104.5 26.0118 104.5 31.5789V89.4737C104.5 95.0408 100.05 99.5 94.5 99.5H10.5C4.94982 99.5 0.5 95.0408 0.5 89.4737L0.5525 31.5794V31.5789C0.5525 26.0085 4.95309 21.5526 10.5 21.5526H31.5H32V21.0526V10.5263C32 4.95917 36.4498 0.5 42 0.5H63C68.5502 0.5 73 4.95917 73 10.5263V21.0526ZM63 21.5526H63.5V21.0526V10.5263V10.0263H63H42H41.5V10.5263V21.0526V21.5526H42H63Z"
    stroke="black"
  />
  </svg>
