<svg
  id="svg-init"
  #svgInit
  width="76"
  height="94"
  viewBox="0 0 76 94"
  fill="none"
  xmlns="http://www.w3.org/2000/svg"
  >
  <path
    d="M6.25 43.75V44.25H6.75H13C14.525 44.25 15.9875 44.8558 17.0659 45.9341C18.1442 47.0125 18.75 48.475 18.75 50V68.75C18.75 70.275 18.1442 71.7375 17.0659 72.8159C15.9875 73.8942 14.525 74.5 13 74.5H6.75C5.22501 74.5 3.76247 73.8942 2.68414 72.8159C1.6058 71.7375 1 70.275 1 68.75V37.5C1 32.6411 1.95703 27.8298 3.81646 23.3407C5.67588 18.8517 8.40128 14.7728 11.837 11.337C15.2728 7.90128 19.3517 5.17588 23.8407 3.31646C28.3298 1.45703 33.1411 0.5 38 0.5C42.8589 0.5 47.6702 1.45703 52.1593 3.31646C56.6483 5.17588 60.7272 7.90128 64.1629 11.337C67.5987 14.7728 70.3241 18.8517 72.1835 23.3407C74.043 27.8298 75 32.6411 75 37.5V75C75 79.0114 73.4065 82.8585 70.57 85.695C67.7335 88.5315 63.8864 90.125 59.875 90.125H46.5375H46.2488L46.1045 90.375C45.5998 91.2491 44.874 91.9749 43.9999 92.4796C43.1258 92.9843 42.1343 93.25 41.125 93.25H34.875C33.35 93.25 31.8875 92.6442 30.8091 91.5659C29.7308 90.4875 29.125 89.025 29.125 87.5C29.125 85.975 29.7308 84.5125 30.8091 83.4341C31.8875 82.3558 33.35 81.75 34.875 81.75H41.125C42.1343 81.75 43.1258 82.0157 43.9999 82.5204C44.874 83.0251 45.5998 83.7509 46.1045 84.625L46.2488 84.875H46.5375H59.875C62.494 84.875 65.0058 83.8346 66.8577 81.9827C68.7096 80.1308 69.75 77.619 69.75 75V74.5H69.25H63C61.475 74.5 60.0125 73.8942 58.9341 72.8159C57.8558 71.7375 57.25 70.275 57.25 68.75V50C57.25 48.475 57.8558 47.0125 58.9341 45.9341C60.0125 44.8558 61.475 44.25 63 44.25H69.25H69.75V43.75V37.5C69.75 33.3305 68.9288 29.2019 67.3332 25.3498C65.7376 21.4977 63.3989 17.9976 60.4506 15.0494C57.5024 12.1011 54.0023 9.76241 50.1502 8.16683C46.2981 6.57124 42.1695 5.75 38 5.75C29.5794 5.75 21.5036 9.09508 15.5494 15.0494C9.59508 21.0036 6.25 29.0794 6.25 37.5V43.75Z"
    stroke="black"
  />
  </svg>
