<svg xmlns="http://www.w3.org/2000/svg" viewBox="0 0 243.25 308.1"><defs><style>.cls-1{font-size:31.11px;font-family:LemonMilk, "Lemon/Milk";}</style></defs><title>alerts</title><g id="Layer_2" data-name="Layer 2"><g id="Layer_1-2" data-name="Layer 1"><path d="M122,266.83q46.25,0,92.48,0c12.84,0,20.87-8,19.38-19.77A18.22,18.22,0,0,0,229.14,237c-10.43-10.26-14.77-22.41-14.4-36.92.46-17.65.13-35.33.1-53,0-3.28-.18-7,4.38-6.79,4.3.17,4.28,3.8,4.27,7.08,0,18,.2,36-.07,54-.17,11.67,3.43,21.4,11.92,29.56A24.92,24.92,0,0,1,240.9,259c-4.59,10.43-12.62,16.12-24.15,16.2q-26.49.18-53,0c-3.51,0-5.19.73-6.13,4.6a36.65,36.65,0,0,1-34.94,28.3c-17.93.21-32.25-10.3-36.92-27.64-1.15-4.3-3.16-5.33-7.29-5.29-17.32.16-34.65,0-52-.05-11.3-.05-19.59-5.33-24-15.55-4.62-10.63-2.8-20.8,5.55-28.95,8.61-8.39,12-18.32,11.84-30.11q-.36-33,0-66c.47-48.13,32.14-87.85,78.94-99,4.39-1,6-2,3.78-6.82a20,20,0,0,1,6.2-24.23c7.85-6,17.9-5.94,25.86.28,7.15,5.6,10,15.85,5.85,24.29-2.27,4.64-.79,5.33,3.41,6.48A211.52,211.52,0,0,1,165.49,43c2.93,1.16,5,1.24,7.68-.8,26.23-19.74,62.12-6.43,69.18,25.54,3.9,17.68-5.19,37.22-21.48,46.18-16.53,9.11-37.49,6.55-50.47-6.16-14.73-14.42-18.09-33.36-8.8-51.61,2-3.9,1.11-5.3-2.67-6.93C103.09,25.15,40.4,59,29.84,119.21a111.65,111.65,0,0,0-1.62,18.35q-.28,33,0,66C28.33,216.27,24,226.93,15,235.77c-5.63,5.51-7.8,12-4.94,19.53s9.25,11.56,18,11.56h94ZM200.07,41.55A34.92,34.92,0,0,0,165,75.91c-.16,18.81,15.62,34.84,34.52,35.07s34.87-15.64,35-34.53A34.77,34.77,0,0,0,200.07,41.55ZM122,275.24H98c-3,0-4.84.74-3.75,4.44,3.35,11.38,14.58,19.76,27.09,20,11.75.22,23.88-8.21,27.33-19.07,1-3.27.62-5.49-3.7-5.39C137.34,275.38,129.67,275.26,122,275.24ZM109.54,21a12.12,12.12,0,0,0,12.21,11.88,12.45,12.45,0,0,0,12-12.24A12.41,12.41,0,0,0,121.13,8.6,11.94,11.94,0,0,0,109.54,21Z"/><text class="cls-1" transform="translate(196.14 85.86) scale(1.03 1)">1</text></g></g></svg>