<svg xmlns="http://www.w3.org/2000/svg" viewBox="0 0 350.57 376.8"><title>bulb</title><g id="Layer_2" data-name="Layer 2"><g id="Layer_1-2" data-name="Layer 1"><path d="M175,300.92c-9.34,0-18.67.08-28,0-11.42-.11-20.36-6.86-23.77-17.82-1.18-3.82-2.38-7.64-3.3-11.53a101.92,101.92,0,0,0-18.16-38.47c-10.82-14.28-19.49-30.15-21.87-48.21C75.73,153.41,86.25,126.49,109,105c27.24-25.66,59.9-33.18,95.39-22,36.37,11.49,58.17,37.43,66,74.76,4.22,20.16-.43,39-10,56.85-2.36,4.4-4.45,9.13-7.64,12.86-13.73,16.08-20.14,35.32-25.33,55.28-3,11.39-12.16,17.94-24,18.13-2,0-4,0-6,0Zm.43-18.09h22c11.2,0,11.28-.25,14.36-10.84,3.95-13.55,6.81-27.53,15.13-39.43,5.06-7.23,10.36-14.32,14.85-21.9,9.05-15.24,14.65-31.42,10.74-49.54-6.93-32.07-25.93-53.64-57.67-61.8-32.18-8.26-60,1.26-80.73,27.26-16.56,20.78-22.76,44.62-11.77,70.18,4.68,10.9,11.33,21.09,18,31,6,8.79,11.07,17.76,13.91,28,1.91,6.9,4.19,13.7,6,20.63,1.22,4.65,4,6.56,8.64,6.51C157.74,282.76,166.57,282.83,175.41,282.83Z"/><path d="M137.94,360h72.64c0,4.72-3,7.47-6.23,9.16-19.83,10.2-39.87,10.18-59.78.2C141,367.54,138.16,364.68,137.94,360Z"/><path d="M136.92,336.05V325.32h75.43v10.73Z"/><path d="M320.21,170.86c7.16,0,14.32-.07,21.48,0,5.4,0,8.81,3,8.88,7.42s-3.21,7.61-8.61,7.64q-21.48.1-43,0c-5.15,0-8.2-2.91-8.28-7.35-.07-4.6,3.12-7.58,8.51-7.66C306.23,170.79,313.22,170.86,320.21,170.86Z"/><path d="M97.67,86.75c-1.67,2-3,5.13-5.12,5.88-2.36.83-6.42.53-8.1-1C73.92,81.71,63.76,71.42,53.68,61.07a7.12,7.12,0,0,1,.25-10.32,7.26,7.26,0,0,1,10.35-.33C74.62,60.51,84.79,70.78,94.9,81.1,96.08,82.3,96.48,84.26,97.67,86.75Z"/><path d="M212.46,308.19V318.6H136.9V308.19Z"/><path d="M136.87,353.68V343.24h75.58v10.44Z"/><path d="M29,186c-6.82,0-13.65.06-20.47,0C3.19,185.86,0,182.84,0,178.22c0-4.18,3.44-7.3,8.37-7.33q21-.1,42,0c5,0,8.32,3.19,8.28,7.44,0,4.45-3.16,7.51-8.13,7.59C43.32,186.05,36.16,186,29,186Z"/><path d="M182.9,28.74c0,6.66.09,13.31,0,20-.09,5.46-3,8.57-7.64,8.5s-7.45-3.3-7.48-8.72q-.1-19.71,0-39.42c0-5.7,3-9.11,7.69-9.07s7.39,3.42,7.44,9.28C182.94,15.77,182.9,22.26,182.9,28.74Z"/><path d="M300.66,292.08c-2,2.46-3.39,5.55-5.55,6.31a10,10,0,0,1-8.12-1.11c-4.46-3.4-8.18-7.78-12.19-11.77-5.55-5.53-11.11-11-16.6-16.61-4-4.12-4.23-8.47-.66-11.82,3.39-3.16,7.5-2.76,11.42,1.15,9,8.94,18,17.83,26.8,26.87C297.54,286.91,298.74,289.29,300.66,292.08Z"/><path d="M96.64,261.84c-1.6,2.78-2.37,5.07-3.9,6.63Q79.18,282.42,65.28,296c-3.89,3.79-8.25,3.75-11.49.43-3.07-3.15-2.75-7.61,1-11.43,9-9.11,17.91-18.32,27.26-27.06a10.5,10.5,0,0,1,8.36-2.14C92.74,256.38,94.42,259.55,96.64,261.84Z"/><path d="M300.52,55.54c-1.53,2.66-2.25,4.79-3.66,6.23Q284,75,270.82,87.84c-3.93,3.85-8.11,4-11.43.74S256.22,81,260,77.16c8.5-8.65,16.91-17.39,25.81-25.6,2-1.86,6.12-2.76,8.84-2.17C296.89,49.87,298.48,53.24,300.52,55.54Z"/><path d="M108.89,169.16c1-35.44,31.16-65.06,66.58-65.48,5.8-.06,9.18,2.62,9.27,7.36s-3.25,7.54-9,7.8C147.4,120.12,126.2,141,124.3,169.38c-.16,2.4-.42,5.67-1.94,6.88a12.23,12.23,0,0,1-8.32,2.47C110.22,178.25,108.74,174.59,108.89,169.16Z"/></g></g></svg>