<svg xmlns="http://www.w3.org/2000/svg" viewBox="0 0 105.43 142.82"><defs><style>.cls-1{fill:#121212;}</style></defs><title>doc</title><g id="Layer_2" data-name="Layer 2"><g id="Layer_1-2" data-name="Layer 1"><path class="cls-1" d="M105.39,84.57q0,21.75,0,43.49c0,10.14-4.55,14.73-14.54,14.74q-38.24,0-76.48,0C4.67,142.79,0,138.14,0,128.37q0-57,0-114C0,4.89,4.63.12,14,.07,30.83,0,47.66.07,64.49,0A6.92,6.92,0,0,1,69.8,2.07Q86.42,18.3,103.21,34.38a7,7,0,0,1,2.22,5.7C105.35,54.91,105.39,69.74,105.39,84.57ZM4.91,71.44q0,28.5,0,57c0,6.66,2.72,9.45,9.34,9.47q38.25.06,76.5,0c7,0,9.7-2.69,9.71-9.62,0-27.67-.07-55.33.1-83C100.6,41.53,99.22,41,96,41c-8,.2-16,.13-24,0-6.42-.06-8.74-2.39-8.79-8.79-.07-7.67-.19-15.34.06-23,.11-3.5-1-4.52-4.46-4.48-14.66.19-29.33.05-44,.1-7.31,0-9.85,2.64-9.86,10Q4.89,43.2,4.91,71.44ZM96.45,36.37,67.86,4.61c0,10.36,0,19,0,27.59,0,3,1.19,4.22,4.17,4.2C80.94,36.33,89.89,36.37,96.45,36.37Z"/><path class="cls-1" d="M52.87,58.75q-16.75,0-33.49,0c-1.76,0-4.08.49-4.07-2.3,0-2.51,2.06-2.6,4-2.6h67c2,0,3.89.22,3.8,2.77S88,58.74,86.36,58.74Z"/><path class="cls-1" d="M52.73,73.8c-11.13,0-22.26,0-33.39,0-1.73,0-4.05.54-4-2.29,0-2.57,2.08-2.56,4-2.56H86.06c1.88,0,4-.06,4,2.5.07,2.83-2.23,2.35-4,2.36Q69.42,73.82,52.73,73.8Z"/><path class="cls-1" d="M52.52,88.85c-11,0-22,0-32.95,0-1.7,0-4.09.63-4.22-2.13-.14-3.13,2.46-2.55,4.33-2.56q33,0,65.9,0c1.83,0,4.52-.73,4.46,2.41s-2.77,2.25-4.56,2.26C74.49,88.89,63.51,88.85,52.52,88.85Z"/><path class="cls-1" d="M53.2,99.23c10.82,0,21.63,0,32.44,0,1.84,0,4.49-.76,4.42,2.42-.06,2.74-2.45,2.2-4.17,2.2q-33.2,0-66.38,0c-1.73,0-4.11.54-4.17-2.2-.07-3.18,2.59-2.41,4.42-2.42C30.91,99.2,42.05,99.23,53.2,99.23Z"/><path class="cls-1" d="M53.22,114.23c10.82,0,21.64,0,32.46,0,1.84,0,4.48-.67,4.37,2.48-.09,2.63-2.4,2.3-4.17,2.3q-33.21,0-66.4,0c-1.78,0-4.09.3-4.13-2.35-.06-3.15,2.59-2.42,4.42-2.43C30.92,114.2,42.07,114.23,53.22,114.23Z"/></g></g></svg>