<svg xmlns="http://www.w3.org/2000/svg" viewBox="0 0 488.6 415.99"><defs><style>.cls-1{fill:#fff;}</style></defs><title>white-speech-bubble</title><g id="Layer_2" data-name="Layer 2"><g id="Capa_1" data-name="Capa 1"><path class="cls-1" d="M129.2,413.5l77.3-77.3h114c92.8,0,168.1-75.3,168.1-168.1A168.09,168.09,0,0,0,320.5,0H168.1A168,168,0,0,0,115,327.5v80.1A8.29,8.29,0,0,0,129.2,413.5ZM313.4,147.3a20.8,20.8,0,1,1-20.8,20.8A20.78,20.78,0,0,1,313.4,147.3Zm-69.1,0a20.8,20.8,0,1,1-20.8,20.8A20.78,20.78,0,0,1,244.3,147.3Zm-69.1,0a20.8,20.8,0,1,1-20.8,20.8A20.78,20.78,0,0,1,175.2,147.3Z"/></g></g></svg>