<svg width="120" height="100" viewBox="0 0 120 100" fill="none" xmlns="http://www.w3.org/2000/svg">
<g id="Frame 17">
<path id="Vector" d="M87.3929 42.2051H88.3929V41.2051V36.1795C88.3929 28.5805 85.3466 21.2945 79.9271 15.924C74.508 10.5538 67.16 7.53846 59.5 7.53846C51.84 7.53846 44.492 10.5538 39.0729 15.924C33.6534 21.2945 30.6071 28.5805 30.6071 36.1795V41.2051V42.2051H31.6071H44.2857C45.3684 42.2051 46.405 42.6314 47.1679 43.3874C47.9304 44.1431 48.3571 45.166 48.3571 46.2308V66.3333C48.3571 67.398 47.9304 68.421 47.1679 69.1767C46.405 69.9326 45.3684 70.359 44.2857 70.359H34.1429C33.3502 70.359 32.5859 70.2592 31.8533 70.0731L30.6071 69.7567V71.0423V72.6152C30.6071 72.6153 30.6071 72.6153 30.6071 72.6154C30.6068 75.7367 31.8022 78.7402 33.9494 81.0192C36.0963 83.298 39.0343 84.6825 42.169 84.8956L42.1868 84.8968L42.2047 84.8974L42.9857 84.9225L43.0018 84.9231H43.0179H48.7384H49.4434L49.6803 84.2591C50.4976 81.9681 52.1067 80.0351 54.2255 78.8035C56.3445 77.5716 58.8357 77.1214 61.2585 77.5333C63.6812 77.9452 65.8771 79.1923 67.4591 81.0518C69.0408 82.9112 69.9073 85.2633 69.9073 87.6923C69.9073 90.1213 69.0408 92.4734 67.4591 94.3327C65.8771 96.1923 63.6812 97.4394 61.2585 97.8513C58.8357 98.2632 56.3445 97.8129 54.2255 96.5811C52.1067 95.3494 50.4976 93.4164 49.6803 91.1255L49.4434 90.4615H48.7384H43.0179C38.4024 90.4619 33.9643 88.7082 30.6173 85.5641C27.274 82.4235 25.2738 78.1349 25.0247 73.5808L25 72.6028V36.1795C25 27.1175 28.6326 18.4247 35.1016 12.0141C41.5709 5.60322 50.3471 2 59.5 2C68.6529 2 77.4291 5.60322 83.8984 12.0141C90.3674 18.4247 94 27.1175 94 36.1795V61.3077C94 63.7053 93.039 66.0065 91.3253 67.7047C89.6114 69.4032 87.2849 70.359 84.8571 70.359H74.7143C73.6316 70.359 72.595 69.9326 71.8321 69.1767C71.0696 68.421 70.6429 67.398 70.6429 66.3333V46.2308C70.6429 45.166 71.0696 44.1431 71.8321 43.3874C72.595 42.6314 73.6316 42.2051 74.7143 42.2051H87.3929Z" stroke="black" stroke-width="2"/>
</g>
</svg>
