<svg width="120" height="100" viewBox="0 0 120 100" fill="none" xmlns="http://www.w3.org/2000/svg">
<g id="Frame 26">
<path id="Vector" d="M54.5455 5.45455V41.0909C54.5455 42.0071 54.1815 42.8858 53.5336 43.5336C52.8858 44.1815 52.0071 44.5455 51.0909 44.5455H15.4545C14.5383 44.5455 13.6597 44.1815 13.0118 43.5336C12.364 42.8858 12 42.0071 12 41.0909V5.45455C12 4.53834 12.364 3.65967 13.0118 3.01181C13.6597 2.36396 14.5383 2 15.4545 2H51.0909C52.0071 2 52.8858 2.36396 53.5336 3.01181C54.1815 3.65967 54.5455 4.53834 54.5455 5.45455ZM68.9091 2H104.545C105.462 2 106.34 2.36396 106.988 3.01181C107.636 3.65967 108 4.53834 108 5.45455V41.0909C108 42.0071 107.636 42.8858 106.988 43.5336C106.34 44.1815 105.462 44.5455 104.545 44.5455H68.9091C67.9929 44.5455 67.1142 44.1815 66.4664 43.5336C65.8185 42.8858 65.4545 42.0071 65.4545 41.0909V5.45455C65.4545 4.53834 65.8185 3.65967 66.4664 3.01181C67.1142 2.36396 67.9929 2 68.9091 2ZM15.4545 55.4545H51.0909C52.0071 55.4545 52.8858 55.8185 53.5336 56.4664C54.1815 57.1142 54.5455 57.9929 54.5455 58.9091V94.5455C54.5455 95.4617 54.1815 96.3403 53.5336 96.9882C52.8858 97.636 52.0071 98 51.0909 98H15.4545C14.5383 98 13.6597 97.636 13.0118 96.9882C12.364 96.3403 12 95.4617 12 94.5455V58.9091C12 57.9929 12.364 57.1142 13.0118 56.4664C13.6597 55.8185 14.5383 55.4545 15.4545 55.4545ZM68.9091 55.4545H104.545C105.462 55.4545 106.34 55.8185 106.988 56.4664C107.636 57.1142 108 57.9929 108 58.9091V94.5455C108 95.4617 107.636 96.3403 106.988 96.9882C106.34 97.636 105.462 98 104.545 98H68.9091C67.9929 98 67.1142 97.636 66.4664 96.9882C65.8185 96.3403 65.4545 95.4617 65.4545 94.5455V58.9091C65.4545 57.9929 65.8185 57.1142 66.4664 56.4664C67.1142 55.8185 67.9929 55.4545 68.9091 55.4545Z" stroke="black" stroke-width="2"/>
</g>
</svg>
