<svg width="98" height="98" viewBox="0 0 98 98" fill="none" xmlns="http://www.w3.org/2000/svg">
<g id="bi:send-fill" clip-path="url(#clip0_24_49)">
<g id="Vector">
<mask id="path-1-inside-1_24_49" fill="white">
<path d="M97.7791 4.20191C98.0019 3.64536 98.0564 3.03568 97.9359 2.44844C97.8155 1.86119 97.5253 1.32222 97.1014 0.898329C96.6775 0.47444 96.1386 0.184277 95.5513 0.0638138C94.9641 -0.0566493 94.3544 -0.00211536 93.7978 0.220655L4.69748 35.862H4.69135L1.92285 36.9645C1.39849 37.1737 0.942151 37.5237 0.604236 37.976C0.266321 38.4282 0.0599829 38.965 0.00801509 39.5272C-0.0439527 40.0893 0.060472 40.6549 0.309754 41.1614C0.559036 41.6679 0.943474 42.0957 1.4206 42.3974L3.93185 43.9899L3.93798 44.0022L34.5323 63.4674L53.9976 94.0618L54.0098 94.074L55.6023 96.5853C55.9051 97.0606 56.3331 97.4431 56.8392 97.6908C57.3453 97.9385 57.91 98.0418 58.4711 97.9892C59.0321 97.9367 59.5678 97.7303 60.0191 97.3929C60.4704 97.0555 60.8199 96.6002 61.0291 96.0769L97.7791 4.20191V4.20191ZM86.552 15.7782L40.6512 61.6789L39.3343 59.6087C39.0931 59.2288 38.771 58.9067 38.3911 58.6654L36.3208 57.3485L82.2216 11.4478L89.4368 8.56291L86.5581 15.7782H86.552Z"/>
</mask>
<path d="M97.7791 4.20191C98.0019 3.64536 98.0564 3.03568 97.9359 2.44844C97.8155 1.86119 97.5253 1.32222 97.1014 0.898329C96.6775 0.47444 96.1386 0.184277 95.5513 0.0638138C94.9641 -0.0566493 94.3544 -0.00211536 93.7978 0.220655L4.69748 35.862H4.69135L1.92285 36.9645C1.39849 37.1737 0.942151 37.5237 0.604236 37.976C0.266321 38.4282 0.0599829 38.965 0.00801509 39.5272C-0.0439527 40.0893 0.060472 40.6549 0.309754 41.1614C0.559036 41.6679 0.943474 42.0957 1.4206 42.3974L3.93185 43.9899L3.93798 44.0022L34.5323 63.4674L53.9976 94.0618L54.0098 94.074L55.6023 96.5853C55.9051 97.0606 56.3331 97.4431 56.8392 97.6908C57.3453 97.9385 57.91 98.0418 58.4711 97.9892C59.0321 97.9367 59.5678 97.7303 60.0191 97.3929C60.4704 97.0555 60.8199 96.6002 61.0291 96.0769L97.7791 4.20191V4.20191ZM86.552 15.7782L40.6512 61.6789L39.3343 59.6087C39.0931 59.2288 38.771 58.9067 38.3911 58.6654L36.3208 57.3485L82.2216 11.4478L89.4368 8.56291L86.5581 15.7782H86.552Z" stroke="black" stroke-width="4" mask="url(#path-1-inside-1_24_49)"/>
</g>
</g>
<defs>
<clipPath id="clip0_24_49">
<rect width="98" height="98" fill="white"/>
</clipPath>
</defs>
</svg>
