<svg width="107" height="98" viewBox="0 0 107 98" fill="none" xmlns="http://www.w3.org/2000/svg">
<path id="Vector" d="M46.415 90.2103L46.4136 90.209L46.4003 90.197C32.6099 77.7139 21.2438 67.4253 13.3126 57.7456C5.39021 48.0768 1 39.138 1 29.3733C1 13.4782 13.4976 1 29.425 1C38.4319 1 47.0915 5.19037 52.7392 11.8109L53.5 12.7027L54.2608 11.8109C59.9085 5.19037 68.5681 1 77.575 1C93.5024 1 106 13.4782 106 29.3733C106 39.138 101.61 48.0769 93.6872 57.7526C85.7836 67.4051 74.4694 77.6687 60.7442 90.1193L60.5878 90.2612L60.5856 90.2632L53.5026 96.6511L46.415 90.2103Z" stroke="black" stroke-width="2"/>
</svg>
