<svg width="120" height="100" viewBox="0 0 120 100" fill="none" xmlns="http://www.w3.org/2000/svg">
<g id="Frame 21">
<g id="Vector">
<mask id="path-1-inside-1_25_54" fill="white">
<path d="M49.9916 72.9757C59.0563 72.9757 67.319 69.5825 73.6587 64.0353L80.5331 78.4304C80.5331 78.4304 81.947 79.582 83.8906 81.4945C85.8804 83.3607 88.4975 85.885 91.0066 88.5224L97.989 95.6788L101.095 99L112 88.0957L108.678 84.9905L101.521 78.0088C99.1132 75.7024 96.7694 73.3297 94.4927 70.8935C92.58 68.9502 91.4282 67.5364 91.4282 67.5364L77.0316 60.6627C82.7975 54.1233 85.9802 45.7057 85.9832 36.9878C85.9832 17.1483 69.8333 1 49.9916 1C30.1499 1 14 17.1483 14 36.9878C14 56.8274 30.1499 72.9757 49.9916 72.9757Z"/>
</mask>
<path d="M49.9916 72.9757C59.0563 72.9757 67.319 69.5825 73.6587 64.0353L80.5331 78.4304C80.5331 78.4304 81.947 79.582 83.8906 81.4945C85.8804 83.3607 88.4975 85.885 91.0066 88.5224L97.989 95.6788L101.095 99L112 88.0957L108.678 84.9905L101.521 78.0088C99.1132 75.7024 96.7694 73.3297 94.4927 70.8935C92.58 68.9502 91.4282 67.5364 91.4282 67.5364L77.0316 60.6627C82.7975 54.1233 85.9802 45.7057 85.9832 36.9878C85.9832 17.1483 69.8333 1 49.9916 1C30.1499 1 14 17.1483 14 36.9878C14 56.8274 30.1499 72.9757 49.9916 72.9757Z" stroke="black" stroke-width="4" mask="url(#path-1-inside-1_25_54)"/>
</g>
</g>
</svg>
